<svg version="1.2" xmlns="http://www.w3.org/2000/svg" viewBox="0 0 500 500" width="500" height="500">
	<title>Appunture Icon</title>
	<defs>
		<!-- Gradiente principal do app -->
		<linearGradient id="appGradient" x1="0%" y1="0%" x2="100%" y2="100%">
			<stop offset="0%" style="stop-color:#007aff;stop-opacity:1" />
			<stop offset="100%" style="stop-color:#5856d6;stop-opacity:1" />
		</linearGradient>
		<!-- Gradiente para hover/interação -->
		<linearGradient id="appGradientHover" x1="0%" y1="0%" x2="100%" y2="100%">
			<stop offset="0%" style="stop-color:#0056d3;stop-opacity:1" />
			<stop offset="100%" style="stop-color:#4a46c7;stop-opacity:1" />
		</linearGradient>
	</defs>
	<style>
		.s0 { fill: #fbfbfb } 
		.s1 { fill: url(#appGradient) } 
		.icon-hover .s1 { fill: url(#appGradientHover) }
	</style>
	<g id="appunture-icon">
		<path id="background" class="s0" d="m0 250v250h500v-500h-500z"/>
		<path id="main-shape" class="s1" d="m407.5 81.1c-1.1 0.6-11.9 11-24 23.1l-22 22c-9.3-7.4-15.1-11.6-19-14.2-3.9-2.6-11.7-7.1-17.5-10-5.8-2.9-15.7-7-22-9.1-6.3-2.1-15.1-4.5-19.5-5.4-4.4-0.9-13.9-2.1-21-2.6-8.5-0.7-17.5-0.6-26 0-7.1 0.6-17.5 2-23 3.2-5.5 1.2-15.1 3.9-21.3 6-6.1 2.2-15.4 6-20.4 8.5-5.1 2.6-12.7 6.9-16.8 9.7-4.1 2.7-10.6 7.5-14.4 10.6-3.8 3.1-10.7 9.7-15.3 14.6-4.7 4.9-11.5 13.5-15.3 19-3.7 5.5-8.7 13.8-11 18.5-2.4 4.7-5.7 12.3-7.6 17-1.8 4.7-4.4 13-5.8 18.5-1.4 5.5-3.1 14.7-3.7 20.5-0.7 6.5-0.9 17.3-0.6 28.5 0.5 12.7 1.2 20.7 2.7 27 1.1 4.9 3.4 13.3 5.1 18.5 1.8 5.2 5.1 13.5 7.4 18.5 2.3 5 6.8 13.3 10 18.5 3.3 5.2 8.8 13 12.2 17.3l6.3 7.7c-5 5.9-15.2 17.1-25.7 28.6-10.6 11.5-19.3 21.7-19.3 22.7 0 0.9 0.4 1.7 1 1.7 0.6 0 9.9-7.7 20.8-17.2 10.8-9.4 22.3-19.5 25.5-22.5l5.7-5.3c11.2 9 17.9 13.9 22 16.7 4.1 2.8 12 7.4 17.5 10.1 5.5 2.8 15.4 6.9 22 9.1 6.6 2.3 16.5 5.2 22 6.3 8.6 1.9 13.2 2.2 33 2.2 21.7 0 23.7-0.1 35-2.8 6.6-1.6 15.8-4.2 20.5-5.8 4.7-1.6 13.2-5.3 19-8.2 5.8-2.9 13.9-7.5 18-10.3 4.1-2.7 10.9-7.7 15-11 4.1-3.3 10.8-9.6 14.9-13.9 4-4.4 10.6-12.4 14.5-17.9 3.9-5.5 9.6-14.9 12.7-21 3-6 7.2-16 9.2-22 2-6 4.6-15.1 5.7-20 1.5-6.4 2.2-14.3 2.7-27.5 0.4-11.7 0.2-22.2-0.6-28.5-0.6-5.5-2.3-14.5-3.7-20-1.4-5.5-4.4-14.7-6.7-20.5-2.4-5.8-6.8-15-9.9-20.5-3.1-5.5-9-14.5-13.2-20l-7.6-10c45.8-45.8 46-46 46-50.3 0-3.5-0.5-4.6-3-6.7-1.6-1.4-4.2-2.5-5.7-2.5-1.6 0-3.7 0.6-4.8 1.1z"/>
		<path id="inner-detail" class="s0" d="m242.8 101.8c-2.6 0.3-9.8 1.1-16 1.8-6.2 0.8-14.9 2.5-19.3 3.8-4.4 1.3-12.1 4-17 6.1-4.9 2-13.1 6.1-18 9-4.9 2.9-12.6 8.2-17 11.7-4.4 3.6-11.5 10.3-15.9 14.9-4.3 4.6-10.5 12.5-13.8 17.4-3.3 4.9-7.8 12.6-10 17-2.2 4.4-5.5 12.5-7.4 18-1.8 5.5-4.1 13.6-5 18-0.9 4.6-1.8 15.4-2.1 25.5-0.5 13.7-0.2 19.8 1.1 28 1 5.8 2.7 13.9 3.8 18 1.1 4.1 3.9 11.8 6 17 2.2 5.2 5.9 12.6 8.1 16.5 2.3 3.9 7.5 11.5 11.7 16.9l7.5 9.9c15.4-16.1 28.9-30.2 39.9-41.8 11.1-11.5 23.2-24.1 26.9-28l6.8-7c-3.5-6.2-5.1-10.5-5.8-13.5-0.7-3-1.3-8-1.3-11 0-3 0.7-8.2 1.5-11.5 0.9-3.3 2.8-8 4.2-10.5 1.5-2.5 4.7-6.5 7.3-9 2.5-2.5 7-5.9 10-7.6 3-1.7 7.5-3.7 10-4.4 2.6-0.7 8.2-1 13.5-0.8 7.5 0.3 10.1 0.8 15.2 3.3l6.2 3 74.6-74.6c-5.4-4.7-10.1-8.2-14-10.9-3.9-2.6-11-6.8-16-9.3-5-2.4-13.7-6.1-19.5-8.2-5.8-2-15.7-4.5-22-5.5-6.3-1-15.6-2-20.5-2.2-4.9-0.2-11.1-0.2-13.7 0zm81.5 87.5l-37.2 37.2c2.9 4.6 4.5 8.7 5.3 12 0.9 3.3 1.6 8.4 1.6 11.2 0 2.9-0.5 7.7-1.1 10.5-0.6 2.9-2.5 7.9-4.3 11.2-1.7 3.2-5.3 8-8.1 10.5-2.7 2.6-7 5.9-9.5 7.4-2.5 1.4-7.2 3.3-10.5 4.2-3.3 0.8-8.2 1.5-11 1.5-2.7 0-7-0.5-9.5-1.1-2.5-0.5-6.9-2.2-9.8-3.7l-5.3-2.7c-8.8 8.5-16.8 16.2-23.4 22.5-6.6 6.3-17 16.2-23 22-6.1 5.8-15.2 14.4-20.3 19.2l-9.2 8.8c7.4 6.4 13.3 10.7 18 13.8 4.7 3.1 13 7.7 18.5 10.3 5.5 2.7 14.1 6.1 19 7.8 4.9 1.6 13.3 3.7 18.5 4.7 6.9 1.3 14.4 1.8 27.5 1.8 13.1 0 20.4-0.4 27-1.7 5-1 13.3-3.1 18.5-4.8 5.2-1.7 13.1-4.8 17.5-6.8 4.4-2.1 11.1-5.7 15-8.1 3.9-2.3 10.6-7.1 15-10.5 4.4-3.4 11.5-10 15.8-14.6 4.4-4.6 11-13.1 14.9-18.9 3.9-5.8 8.7-14.1 10.8-18.5 2.1-4.4 5.2-12.3 6.9-17.5 1.7-5.2 4-14.7 5.1-21 1.4-8 2-16 2-26.3 0-10.2-0.6-18.3-2-26.5-1.2-6.4-3.4-15.5-4.9-20.2-1.6-4.7-4.7-12.3-6.9-17-2.2-4.7-6.7-12.6-9.9-17.5-3.3-4.9-7.4-10.7-9.1-12.8-1.8-2-3.5-3.7-4-3.7-0.4 0-17.5 16.8-37.9 37.2z"/>
	</g>
</svg>
